<svg xmlns="http://www.w3.org/2000/svg" viewBox="0 0 201.41 74"><defs><style>.cls-1{fill:#fff;}</style></defs><title>11资源 2bg9004</title><g id="图层_2" data-name="图层 2"><g id="图层_1-2" data-name="图层 1"><path class="cls-1" d="M22.41,22h-21V18h21V0h6V18h20v4h-19V32.06q1.75,20.73,21.05,32.26-3.23,1.77-2.05,7.4V73a2.22,2.22,0,0,1-.89-.3Q31.38,64,28.09,38.11q-3.28,17-26,34.89H0Q22.71,54.8,22.41,28Z"/><path class="cls-1" d="M88.41,11V8h7V0h6V8h6v3h-5.55a12.43,12.43,0,0,1-4.45,9h5V18h5V44h-5V42h-8l-1,3h-5V20.4L82.3,55.8a2.36,2.36,0,0,0,.28.9,92.51,92.51,0,0,1,4.72,9A31.33,31.33,0,0,1,84,72.9a82.62,82.62,0,0,1-7.5-25.2l.28-.3,3.33,4.8,8.33-36,.84.3L89,18h4.44v2h1.11c.56-1.12.74-4.12.56-9ZM76,19.08l.29-.3q4.74,4.74,8.29,8.59a58.5,58.5,0,0,1-3.25,6.21A38.05,38.05,0,0,1,76,19.08ZM80.46,2.5l.29-.29a52.15,52.15,0,0,1,7.4,7.69,19.17,19.17,0,0,1-3.55,5A27.28,27.28,0,0,1,80.46,2.5Zm15,51.5h-8V52h8V46h5v5h7v3h-7V73h-5Zm-1-24h6v3h-6v6h8V23h-8Zm15,21.61V1h5V4h6V1h5V65.5q-.27,5.4-8.89,8.4c-.18-1-.65-1.3-1.38-.9l-3.06.9-.56-.9q8.9-3.3,8.89-8.1V7h-6V21h4v3h-4V39h4v3h-4v8.45q0,7.57-7.77,17.76c-.75,1.36-1.49,2.63-2.23,3.79h-1.66A41.28,41.28,0,0,0,109.41,51.61Z"/><path class="cls-1" d="M159.41,9v2h4V8h5v7h4V1h5V15h3V11h4V62.58c.62,4.15-2.14,7.5-8.06,10.07q-.3-1.49-2.37-.6l-4.14,1.19-.3-.89q6.81-3.25,8.58-5.33c1.19-1.18,1.78-3,2.29-5.32V19h-3V47.24Q179,60.18,164.91,74h-2.5q10-12.36,10-22.65V19h-4V57h-5V53h-4v6h-5V9Zm0,5V50h4V14Zm42,57h-5V64h-4v7h-5V9h5v4h4V9h5Zm-9-55V62h4V16Z"/></g></g></svg>