<?xml version="1.0" encoding="utf-8"?>
<!-- Generator: Adobe Illustrator 21.0.0, SVG Export Plug-In . SVG Version: 6.00 Build 0)  -->
<svg version="1.1"
	 id="svg2" xmlns:cc="http://creativecommons.org/ns#" xmlns:dc="http://purl.org/dc/elements/1.1/" xmlns:rdf="http://www.w3.org/1999/02/22-rdf-syntax-ns#" xmlns:svg="http://www.w3.org/2000/svg"
	 xmlns="http://www.w3.org/2000/svg" xmlns:xlink="http://www.w3.org/1999/xlink" x="0px" y="0px" viewBox="0 0 47.5 47.5"
	 style="enable-background:new 0 0 47.5 47.5;" xml:space="preserve">
<style type="text/css">
	.st0{clip-path:url(#SVGID_2_);}
	.st1{fill:#FFCC4D;}
	.st2{fill:#FF7892;}
	.st3{fill:#664500;}
</style>
<g id="g10" transform="matrix(1.25,0,0,-1.25,0,47.5)">
	<g id="g12">
		<g>
			<defs>
				<rect id="SVGID_1_" x="-7.4" y="-7.4" width="52.9" height="52.9"/>
			</defs>
			<clipPath id="SVGID_2_">
				<use xlink:href="#SVGID_1_"  style="overflow:visible;"/>
			</clipPath>
			<g id="g14" class="st0">
				<g id="g20" transform="translate(36,19)">
					<path id="path22" class="st1" d="M1.9,0c0-10.5-8.5-18.9-18.9-18.9S-35.9-10.5-35.9,0s8.5,18.9,18.9,18.9S1.9,10.5,1.9,0"/>
				</g>
				<g id="g24" transform="translate(13,16)">
					<path id="path26" class="st2" d="M-0.7-0.3c0-3.1-2.5-5.6-5.6-5.6s-5.6,2.5-5.6,5.6s2.5,5.6,5.6,5.6S-0.7,2.7-0.7-0.3"/>
				</g>
				<g id="g28" transform="translate(35,16)">
					<path id="path30" class="st2" d="M1.8-0.3c0-3.1-2.5-5.6-5.6-5.6s-5.6,2.5-5.6,5.6s2.5,5.6,5.6,5.6S1.8,2.7,1.8-0.3"/>
				</g>
				<g id="g32" transform="translate(29.416,19.2773)">
					<path id="path34" class="st3" d="M1.2,0C1.1,0.1-0.5,2.5-3.7,2.5C-7,2.5-8.6,0.1-8.7,0c-0.2-0.2-0.1-0.5,0.1-0.7
						c0.2-0.2,0.5-0.2,0.7,0c0,0,1.4,1,4.1,1c2.7,0,4.1-1,4.1-1c0.1-0.1,0.2-0.1,0.3-0.1c0.1,0,0.3,0.1,0.4,0.2
						C1.3-0.5,1.3-0.2,1.2,0"/>
				</g>
				<g id="g36" transform="translate(13,21.5)">
					<path id="path38" class="st3" d="M-0.7,0.3c-3.2,0-4.8-2.4-4.9-2.5c-0.1-0.2-0.1-0.5,0.1-0.7c0.2-0.2,0.5-0.2,0.7,0
						c0,0,1.4,1,4.1,1c2.7,0,4.1-1,4.1-1C3.5-3,3.7-3.1,3.8-3.1C3.9-3.1,4-3,4.2-2.9c0.2,0.2,0.2,0.5,0.1,0.7
						C4.2-2.1,2.6,0.3-0.7,0.3"/>
				</g>
				<g id="g40" transform="translate(22.8711,10)">
					<path id="path42" class="st3" d="M0.4-1c1.5,0.5,2.9,1.3,2.9,2.8c0,2.9-5.5,3.3-6.1,3.3c-0.3,0-0.6-0.2-0.6-0.5
						C-3.3,4.3-3.1,4-2.8,4c0,0,3.9-0.3,3.9-2.2s-3.9-2.2-3.9-2.2c0,0,0,0,0,0c-0.1,0-0.3-0.1-0.3-0.2c0,0,0,0,0,0
						c0,0-0.1-0.1-0.1-0.1c0,0,0-0.1,0-0.1c0,0,0-0.1,0-0.1c0,0,0,0,0,0s0,0,0,0c0,0,0-0.1,0-0.1c0,0,0-0.1,0-0.1c0,0,0-0.1,0.1-0.1
						c0,0,0-0.1,0.1-0.1c0,0,0.1,0,0.1-0.1c0,0,0.1,0,0.1-0.1c0,0,0.1,0,0.1,0c0,0,0,0,0.1,0c0,0,3.9-0.3,3.9-2.2S-2.8-6-2.8-6
						c-0.3,0-0.5-0.3-0.5-0.6c0-0.3,0.3-0.5,0.6-0.5c0,0,0,0,0,0c0.6,0,6.1,0.4,6.1,3.3C3.4-2.3,1.9-1.5,0.4-1"/>
				</g>
				<g id="g44" transform="translate(32.001,21)">
					<path id="path46" class="st3" d="M1.5,0.2c-0.3,0-0.7,0.2-0.9,0.4c-2.9,3.9-6.7,4-6.9,4c-0.6,0-1.1,0.5-1.1,1.1
						c0,0.6,0.5,1.1,1.1,1.1c0.2,0,5.1-0.1,8.7-4.9c0.4-0.5,0.3-1.2-0.2-1.6C1.9,0.3,1.7,0.2,1.5,0.2"/>
				</g>
				<g id="g48" transform="translate(5.999,21)">
					<path id="path50" class="st3" d="M-1.5,0.2c-0.2,0-0.5,0.1-0.7,0.2C-2.6,0.8-2.7,1.5-2.4,2c3.6,4.8,8.5,4.9,8.7,4.9
						c0.6,0,1.1-0.5,1.1-1.1c0-0.6-0.5-1.1-1.1-1.1c-0.2,0-4-0.1-6.9-4C-0.8,0.4-1.1,0.2-1.5,0.2"/>
				</g>
			</g>
		</g>
	</g>
</g>
</svg>
