<?xml version="1.0" standalone="no"?><!DOCTYPE svg PUBLIC "-//W3C//DTD SVG 1.1//EN" "http://www.w3.org/Graphics/SVG/1.1/DTD/svg11.dtd"><svg t="1561020161933" class="icon" viewBox="0 0 1024 1024" version="1.1" xmlns="http://www.w3.org/2000/svg" p-id="6095" xmlns:xlink="http://www.w3.org/1999/xlink" width="200" height="200"><defs><style type="text/css"></style></defs><path d="M26.176 27.136c16.256-15.936 38.272-24.896 61.184-24.896h679.232l255.104 255.232v681.472c0 22.336-9.024 43.776-25.088 59.52a85.952 85.952 0 0 1-60.544 24.576H86.464c-22.72 0-44.48-8.832-60.544-24.64a83.456 83.456 0 0 1-25.088-59.52V87.296c0-22.592 9.088-44.224 25.344-60.16z" fill="#6DA2ED" p-id="6096"></path><path d="M0 653.632h1024v285.056c0 47.104-38.208 85.312-85.312 85.312H85.312A85.312 85.312 0 0 1 0 938.688v-285.056z" fill="#4D8FF0" p-id="6097"></path><path d="M228.992 742.912v213.248h24.512v-99.2h112v-21.184h-112v-71.68h118.272v-21.184H228.992z m174.144 0v213.248h24.192v-213.248h-24.192z m68.992 0v213.248h147.52v-21.184H496.32v-192.064h-24.192z m175.616 0v213.248h156.224v-21.184h-131.712v-78.272h119.488v-21.184h-119.488V764.16h126.656v-21.184l-151.168-0.064zM152.064 152.512h218.752c11.776 0 21.312 9.536 21.312 21.312v21.376a21.312 21.312 0 0 1-21.312 21.312H152.064a21.312 21.312 0 0 1-21.312-21.312v-21.376c0-11.776 9.536-21.312 21.312-21.312zM152.064 283.264h175.232c11.776 0 21.312 9.536 21.312 21.312v0.896a21.312 21.312 0 0 1-21.312 21.312H152.064a21.312 21.312 0 0 1-21.312-21.312v-0.896c0-11.776 9.536-21.312 21.312-21.312z m261.44 0h0.896c11.776 0 21.312 9.536 21.312 21.312v0.896a21.312 21.312 0 0 1-21.312 21.312h-0.896a21.312 21.312 0 0 1-21.312-21.312v-0.896c0-11.776 9.536-21.312 21.312-21.312z m87.168 0h175.232c11.776 0 21.312 9.536 21.312 21.312v0.896a21.312 21.312 0 0 1-21.312 21.312H500.672a21.312 21.312 0 0 1-21.312-21.312v-0.896a21.248 21.248 0 0 1 21.312-21.312z m261.44 0h109.824c11.776 0 21.312 9.536 21.312 21.312v0.896a21.312 21.312 0 0 1-21.312 21.312h-109.824a21.312 21.312 0 0 1-21.312-21.312v-0.896a21.248 21.248 0 0 1 21.312-21.312zM152.064 413.952H632.32c11.776 0 21.312 9.536 21.312 21.312v0.896a21.312 21.312 0 0 1-21.312 21.312H152.064a21.184 21.184 0 0 1-21.312-21.248v-0.96c0-11.776 9.536-21.312 21.312-21.312z m566.464 0h153.408c11.776 0 21.312 9.536 21.312 21.312v0.896a21.312 21.312 0 0 1-21.312 21.312h-153.408a21.312 21.312 0 0 1-21.312-21.312v-0.896c0-11.776 9.536-21.312 21.312-21.312zM152.064 544.704h88.064c11.776 0 21.312 9.536 21.312 21.312v0.896a21.312 21.312 0 0 1-21.312 21.312H152.064a21.312 21.312 0 0 1-21.312-21.312v-0.896c0-11.776 9.536-21.312 21.312-21.312z m174.272 0h262.336c11.776 0 21.312 9.536 21.312 21.312v0.896a21.312 21.312 0 0 1-21.312 21.312H326.336a21.312 21.312 0 0 1-21.312-21.312v-0.896c0-11.776 9.536-21.312 21.312-21.312z m348.608 0h196.992c11.776 0 21.312 9.536 21.312 21.312v0.896a21.312 21.312 0 0 1-21.312 21.312h-196.992a21.312 21.312 0 0 1-21.312-21.312v-0.896c0-11.776 9.536-21.312 21.312-21.312z" fill="#FFFFFF" p-id="6098"></path><path d="M1021.696 257.472h-169.472c-22.72 0-44.544-8.832-60.608-24.64s-25.088-37.248-25.088-59.584V2.24l255.168 255.232" fill="#4D8FF0" p-id="6099"></path></svg>